# xmcd
#
# Track frame offsets: 
#        150
#        10302
#        21661
#        32268
#        42071
#        52817
#        61865
#        73322
#        81479
#        94216
#        103945
#        113652
#        122241
#        131212
#        139633
#        150243
#        160860
#        171708
#        181107
#        192485
#        201775
#        211319
#        222432
#        234319
#        245188
#        254536
#        266557
#        275980
#        286622
#        296347
#
# Disc length: 4068 seconds
#
# Revision: 0
# Processed by: cddbd v1.5.2PL0 Copyright (c) Steve Scherf et al.
# Submitted via: ExactAudioCopy v1.1
#
DISCID=c90fe21e
DTITLE=Sonny James - Yong Love - The 1955-1962 Rock 'N' Roll Recording
DTITLE=s
DYEAR=2017
DGENRE=Country
TTITLE0=Yo-Yo  2:15
TTITLE1=Let痴 Play Love   2:31
TTITLE2=I Can't Stop Loving You   2:21
TTITLE3=Uh-Huh-Mm   2:11
TTITLE4=Kathleen  2:23
TTITLE5=A Mighty Lovable Man  2:01
TTITLE6=Young Love   2:33
TTITLE7=Pure Love   1:49
TTITLE8=Apache   2:50
TTITLE9=Are You Mine   2:10
TTITLE10=Talk of the School   2:09
TTITLE11=Climb Up the Ladder of Love   1:55
TTITLE12=You Got that Touch   2:00
TTITLE13=Sweet Thing   1:52
TTITLE14=Let's Go Bunny-Huggin・  2:21
TTITLE15=This Love of Mine   2:22
TTITLE16=Why Can't They Remember   2:25
TTITLE17=Can't Get Over Missin・You   2:05
TTITLE18=The Cat Came Back   2:32
TTITLE19=Let's Make Up   2:04
TTITLE20=Near You   2:07
TTITLE21=First Date, First Love, First Kiss   2:28
TTITLE22=I Can See It in Your Eyes   2:38
TTITLE23=For Rent (One Empty Heart)   2:25
TTITLE24=Beg Your Pardon   2:05
TTITLE25=Heartaches   2:40
TTITLE26=Twenty Feet of Muddy Water   2:06
TTITLE27=Lovesick Blues   2:22
TTITLE28=Innocent Angel   2:10 
TTITLE29=Let Me Be the One to Love You   1:57
EXTD=
EXTT0=
EXTT1=
EXTT2=
EXTT3=
EXTT4=
EXTT5=
EXTT6=
EXTT7=
EXTT8=
EXTT9=
EXTT10=
EXTT11=
EXTT12=
EXTT13=
EXTT14=
EXTT15=
EXTT16=
EXTT17=
EXTT18=
EXTT19=
EXTT20=
EXTT21=
EXTT22=
EXTT23=
EXTT24=
EXTT25=
EXTT26=
EXTT27=
EXTT28=
EXTT29=
PLAYORDER=
